<svg width="20" height="22" viewBox="0 0 20 22" fill="none" xmlns="http://www.w3.org/2000/svg">
<path d="M3.54911 2.97892L3.45454 2.6H3.06399H1.59999C1.41434 2.6 1.23629 2.52625 1.10502 2.39497L0.751466 2.74852L1.10502 2.39497C0.973744 2.2637 0.899994 2.08565 0.899994 1.9C0.899994 1.71435 0.973744 1.5363 1.10502 1.40502C1.23629 1.27375 1.41434 1.2 1.59999 1.2H3.99998C3.99999 1.2 3.99999 1.2 3.99999 1.2C4.15604 1.2 4.30761 1.25215 4.43063 1.34816L4.73824 0.953983L4.43063 1.34816C4.55358 1.44411 4.64096 1.57837 4.67892 1.72964C4.67894 1.72973 4.67896 1.72981 4.67898 1.7299L5.05085 3.22099L5.14538 3.6H5.53599H18.3997C18.519 3.60006 18.6363 3.6306 18.7404 3.68872C18.8446 3.74683 18.9322 3.8306 18.9949 3.93207C19.0576 4.03354 19.0933 4.14935 19.0986 4.2685C19.104 4.38761 19.0789 4.50612 19.0256 4.61279C19.0256 4.61282 19.0255 4.61286 19.0255 4.6129L15.4256 11.8128L15.4255 11.8129C15.3674 11.9292 15.2781 12.0269 15.1676 12.0953C15.0571 12.1637 14.9297 12.1999 14.7997 12.2H6.89679H6.68969L6.54324 12.3464L5.34324 13.5464L4.48969 14.4H5.69679H16C16.1856 14.4 16.3637 14.4737 16.495 14.605C16.6262 14.7363 16.7 14.9143 16.7 15.1C16.7 15.2856 16.6262 15.4637 16.495 15.595C16.3637 15.7262 16.1856 15.8 16 15.8H5.69679C4.00394 15.8 3.15647 13.7538 4.35355 12.5568L5.42495 11.4865L5.62539 11.2863L5.55665 11.0115L3.92705 4.49549L3.92708 4.49548L3.92577 4.49048C3.92324 4.48076 3.92091 4.47098 3.91879 4.46115L3.91708 4.4532L3.91511 4.44532L3.54911 2.97892ZM16.7 19.3C16.7 19.6448 16.563 19.9754 16.3192 20.2192C16.0754 20.463 15.7448 20.6 15.4 20.6C15.0552 20.6 14.7246 20.463 14.4808 20.2192C14.237 19.9754 14.1 19.6448 14.1 19.3C14.1 18.9552 14.237 18.6246 14.4808 18.3808C14.7246 18.137 15.0552 18 15.4 18C15.7448 18 16.0754 18.137 16.3192 18.3808C16.563 18.6246 16.7 18.9552 16.7 19.3ZM6.71923 20.2192C6.47543 20.463 6.14477 20.6 5.79999 20.6C5.45521 20.6 5.12455 20.463 4.88076 20.2192C4.63696 19.9754 4.49999 19.6448 4.49999 19.3C4.49999 18.9552 4.63696 18.6246 4.88075 18.3808C5.12455 18.137 5.45521 18 5.79999 18C6.14478 18 6.47544 18.137 6.71923 18.3808C6.96303 18.6246 7.09999 18.9552 7.09999 19.3C7.09999 19.6448 6.96303 19.9754 6.71923 20.2192Z" stroke="white"/>
</svg>
