<svg width="142" height="143" viewBox="0 0 142 143" fill="none" xmlns="http://www.w3.org/2000/svg">
<g filter="url(#filter0_d_3_385)">
<circle cx="71" cy="66" r="60" fill="#A2C3A4"/>
</g>
<path d="M55.7763 102.988C55.4637 102.831 55.1822 102.736 54.9318 102.704C54.6815 102.672 54.4623 102.687 54.2743 102.749C54.0821 102.809 53.917 102.909 53.7789 103.048C53.6366 103.186 53.5182 103.348 53.4238 103.536C53.3251 103.732 53.2683 103.923 53.2531 104.108C53.2359 104.298 53.2667 104.481 53.3455 104.656C53.4223 104.836 53.5522 105.009 53.7354 105.174C53.9144 105.337 54.1519 105.493 54.4479 105.642L56.1422 106.495L57.4769 103.844L55.7763 102.988ZM54.241 110.272L55.5568 107.658L54.2188 106.985C53.6435 106.695 53.1576 106.581 52.7609 106.643C52.36 106.702 52.0452 106.959 51.8165 107.413C51.5793 107.884 51.5438 108.287 51.7098 108.621C51.8759 108.956 52.2423 109.266 52.8092 109.551L54.241 110.272ZM52.1544 110.851C51.5626 110.553 51.0845 110.242 50.7201 109.918C50.3558 109.593 50.0927 109.26 49.9309 108.917C49.7649 108.572 49.6938 108.22 49.7178 107.861C49.7417 107.502 49.8471 107.138 50.0339 106.767C50.1409 106.554 50.275 106.365 50.4361 106.201C50.5952 106.041 50.7844 105.909 51.0039 105.805C51.217 105.703 51.4603 105.635 51.7338 105.6C52.0032 105.564 52.3016 105.568 52.6291 105.612C51.5276 104.708 51.2444 103.724 51.7795 102.661C51.9726 102.278 52.2239 101.96 52.5335 101.708C52.8431 101.457 53.1973 101.282 53.5962 101.185C53.993 101.093 54.4292 101.082 54.9048 101.155C55.3805 101.227 55.8809 101.395 56.4061 101.66L59.8198 103.378L55.2681 112.419L52.1544 110.851Z" fill="black"/>
<path d="M36.5863 92.1963C36.4004 91.8943 36.2011 91.6552 35.9886 91.4792C35.7736 91.2992 35.5565 91.178 35.3373 91.1157C35.1117 91.0519 34.8855 91.0404 34.6586 91.0815C34.4318 91.1225 34.2091 91.2103 33.9905 91.3449C33.5534 91.614 33.3069 91.9658 33.2511 92.4002C33.1928 92.8307 33.3459 93.342 33.7105 93.9341L34.3418 94.9593L37.2029 93.1977L36.5863 92.1963ZM38.5648 85.2895L39.4566 86.738C39.6255 87.0121 39.6405 87.2769 39.5018 87.5322L37.8577 91.0435C37.796 91.1747 37.7689 91.2955 37.7766 91.4058C37.7818 91.5122 37.8334 91.6449 37.9313 91.8039L38.3533 92.4893L41.7211 90.4157L42.7084 92.0191L34.0892 97.3262L32.4707 94.6975C32.111 94.1133 31.8643 93.5747 31.7306 93.0816C31.5904 92.587 31.5477 92.1393 31.6023 91.7384C31.6545 91.3337 31.7944 90.9735 32.0221 90.6579C32.2458 90.3448 32.5405 90.0757 32.9061 89.8506C33.1961 89.672 33.4973 89.5469 33.8094 89.4753C34.1191 89.3997 34.4294 89.3785 34.7403 89.4117C35.0488 89.441 35.3559 89.5259 35.6617 89.6665C35.965 89.8031 36.2553 89.9942 36.5326 90.24C36.5286 90.0999 36.5414 89.9605 36.5711 89.8217C36.5967 89.6854 36.6431 89.5472 36.7104 89.4071L38.5648 85.2895Z" fill="black"/>
<path d="M29.101 63.6008C29.8429 63.612 30.5293 63.7461 31.1601 64.003C31.7864 64.2551 32.3271 64.6087 32.7823 65.0636C33.2375 65.5186 33.5909 66.063 33.8427 66.6969C34.0898 67.3307 34.2076 68.0325 34.1959 68.8024C34.1843 69.5677 34.0455 70.2633 33.7793 70.8894C33.5085 71.5153 33.1387 72.0512 32.6699 72.4968C32.2012 72.9377 31.65 73.2771 31.0163 73.5149C30.378 73.7526 29.6878 73.8658 28.9459 73.8546C28.204 73.8434 27.52 73.7094 26.8938 73.4525C26.2629 73.1956 25.7199 72.8397 25.2647 72.3848C24.8096 71.9252 24.4585 71.3785 24.2114 70.7447C23.9596 70.1108 23.8395 69.4112 23.8511 68.646C23.8589 68.1327 23.9268 67.6507 24.055 67.1999C24.1785 66.749 24.3528 66.3363 24.5778 65.9617C24.7981 65.587 25.0669 65.2526 25.384 64.9587C25.6966 64.6601 26.0458 64.4087 26.4316 64.2045C26.8174 64.0003 27.235 63.8479 27.6846 63.7474C28.1343 63.6422 28.6064 63.5933 29.101 63.6008ZM29.0719 65.5256C28.5166 65.5172 28.0185 65.5843 27.5777 65.727C27.1321 65.8696 26.7533 66.0762 26.4412 66.3469C26.129 66.6175 25.8883 66.9499 25.719 67.3441C25.5498 67.7336 25.4614 68.1756 25.4539 68.6702C25.4464 69.1648 25.5214 69.6117 25.6787 70.0108C25.8361 70.4052 26.0666 70.7447 26.3703 71.0293C26.6741 71.3093 27.0466 71.5273 27.4876 71.6833C27.9239 71.8393 28.4198 71.9214 28.975 71.9298C29.5303 71.9382 30.0307 71.8711 30.4762 71.7285C30.9171 71.5858 31.2936 71.3792 31.6057 71.1085C31.9133 70.8331 32.1517 70.5007 32.3209 70.1112C32.4902 69.7171 32.5786 69.2727 32.5861 68.7781C32.5936 68.2835 32.5186 67.839 32.3612 67.4445C32.2039 67.0454 31.9757 66.706 31.6766 66.4261C31.3728 66.1461 31.0027 65.9281 30.5663 65.7722C30.1253 65.6162 29.6272 65.534 29.0719 65.5256Z" fill="black"/>
<path d="M36.5204 34.8674L42.8836 43.3435L41.8873 44.7222L34.9861 42.4642C34.8144 42.415 34.6152 42.3401 34.3884 42.2396C34.4666 42.3306 34.5391 42.4176 34.6059 42.5004C34.6727 42.5832 34.7325 42.6638 34.7852 42.7423L39.0829 48.6029L38.0825 49.9873L28.0416 46.6005L28.9641 45.3239C29.0598 45.1915 29.1712 45.1051 29.2984 45.0645C29.4245 45.0175 29.5514 45.0171 29.6792 45.0634L35.5955 47.2142C35.7384 47.2714 35.8913 47.3387 36.0541 47.4161C36.216 47.487 36.3853 47.5633 36.5623 47.6451C36.4253 47.5 36.2991 47.3599 36.1838 47.2247C36.0711 47.0858 35.9694 46.9518 35.8784 46.8227L32.1351 41.6649C32.07 41.5718 32.0329 41.4557 32.0239 41.3168C32.0176 41.1741 32.061 41.0384 32.1539 40.9098L32.4778 40.4616C32.5735 40.3292 32.6835 40.2447 32.808 40.2079C32.9324 40.1712 33.0607 40.1689 33.1929 40.2011L39.2609 42.142C39.5528 42.232 39.8752 42.3556 40.228 42.5127C39.9647 42.2476 39.7339 41.9973 39.5356 41.7618L35.6365 36.8196C35.5583 36.7286 35.518 36.6131 35.5155 36.4731C35.5158 36.3293 35.5624 36.1932 35.6553 36.0646L36.5204 34.8674Z" fill="black"/>
<path d="M55.1475 25.013C55.13 25.1245 55.099 25.2137 55.0546 25.2806C55.0128 25.3414 54.9483 25.3884 54.8611 25.4216C54.7695 25.4564 54.6567 25.4619 54.5228 25.4379C54.3915 25.4079 54.236 25.3797 54.0562 25.3533C53.8764 25.3268 53.6737 25.319 53.4482 25.3299C53.2253 25.3348 52.9787 25.3886 52.7083 25.4915C52.464 25.5844 52.2619 25.6962 52.1019 25.827C51.9403 25.9534 51.8162 26.093 51.7295 26.2458C51.6472 26.3969 51.6037 26.5582 51.599 26.7298C51.5927 26.8969 51.6227 27.0677 51.6891 27.2422C51.7737 27.4647 51.9053 27.6268 52.0838 27.7287C52.2667 27.8288 52.4806 27.8923 52.7254 27.919C52.9702 27.9457 53.2393 27.9507 53.5325 27.934C53.8257 27.9174 54.128 27.9048 54.4393 27.8962C54.7489 27.8833 55.0586 27.8903 55.3685 27.9172C55.6766 27.9398 55.9697 28.0081 56.2477 28.122C56.5241 28.2316 56.7756 28.4005 57.0022 28.6289C57.2332 28.8555 57.4234 29.1652 57.5727 29.5577C57.7353 29.9852 57.8138 30.4147 57.8082 30.8462C57.8053 31.2717 57.7152 31.6779 57.5378 32.0649C57.3632 32.4459 57.1037 32.7942 56.7595 33.1099C56.4136 33.4213 55.9789 33.6765 55.4555 33.8756C55.1545 33.99 54.8463 34.0723 54.5308 34.1224C54.217 34.1769 53.9042 34.201 53.5923 34.1948C53.2847 34.187 52.9842 34.1515 52.6905 34.0885C52.3969 34.0254 52.1229 33.9349 51.8683 33.8171L52.0642 32.7764C52.0846 32.6988 52.1222 32.6271 52.177 32.5613C52.2302 32.4911 52.2961 32.4411 52.3746 32.4112C52.4836 32.3697 52.6188 32.3707 52.7802 32.4142C52.9398 32.4533 53.1277 32.4942 53.3436 32.5369C53.5595 32.5796 53.8005 32.6028 54.0665 32.6064C54.3353 32.6041 54.6332 32.5407 54.9603 32.4163C55.4619 32.2255 55.8053 31.96 55.9905 31.62C56.1741 31.2755 56.1812 30.8809 56.012 30.436C55.9174 30.1874 55.777 30.0086 55.5908 29.8997C55.409 29.7891 55.1956 29.7205 54.9508 29.6938C54.7043 29.6627 54.4361 29.6599 54.1462 29.6853C53.8563 29.7107 53.5595 29.7312 53.2559 29.7468C52.9523 29.7624 52.6464 29.759 52.3383 29.7364C52.0301 29.7138 51.7362 29.6434 51.4565 29.5251C51.1769 29.4068 50.9182 29.2255 50.6805 28.9814C50.4456 28.7313 50.246 28.3903 50.0817 27.9585C49.9507 27.6139 49.8905 27.2523 49.9013 26.8738C49.9165 26.4935 50.0068 26.1271 50.1722 25.7746C50.3377 25.4221 50.5833 25.0965 50.9091 24.7978C51.2349 24.4992 51.6464 24.2553 52.1436 24.0661C52.7019 23.8538 53.2498 23.7452 53.7872 23.7405C54.3247 23.7358 54.8189 23.8274 55.2698 24.0154L55.1475 25.013Z" fill="black"/>
<path d="M74.9837 21.7559L74.577 24.5333L78.0816 25.0464L77.8717 26.4801L74.3671 25.967L73.9523 28.7998L78.3989 29.4509L78.1808 30.94L71.8642 30.0151L73.3306 19.9999L79.6473 20.9248L79.4302 22.407L74.9837 21.7559Z" fill="black"/>
<path d="M108.922 41.9833C108.809 41.9921 108.715 41.9825 108.64 41.9547C108.571 41.9281 108.51 41.8762 108.458 41.799C108.403 41.7179 108.372 41.6095 108.364 41.4736C108.363 41.339 108.354 41.1812 108.338 41.0001C108.323 40.8191 108.283 40.6201 108.221 40.4032C108.164 40.1875 108.055 39.96 107.892 39.7207C107.746 39.5045 107.59 39.3337 107.426 39.2083C107.266 39.0802 107.101 38.9917 106.932 38.9427C106.766 38.8975 106.599 38.8925 106.431 38.9276C106.267 38.9601 106.108 39.0288 105.954 39.1337C105.757 39.2674 105.629 39.4329 105.572 39.6301C105.516 39.8312 105.504 40.054 105.535 40.2983C105.565 40.5427 105.623 40.8056 105.707 41.0871C105.791 41.3685 105.873 41.6597 105.953 41.9605C106.037 42.2588 106.102 42.5618 106.147 42.8694C106.196 43.1745 106.198 43.4754 106.151 43.7722C106.108 44.0664 106.002 44.3501 105.832 44.6234C105.665 44.9006 105.408 45.1571 105.061 45.3931C104.682 45.6501 104.282 45.8257 103.861 45.92C103.447 46.0155 103.031 46.0217 102.613 45.9386C102.202 45.8567 101.803 45.6848 101.417 45.4228C101.034 45.1582 100.685 44.7943 100.37 44.3311C100.189 44.0647 100.038 43.7839 99.9164 43.4885C99.7909 43.1958 99.6951 42.897 99.629 42.5921C99.5656 42.291 99.5306 41.9904 99.5241 41.6902C99.5177 41.3899 99.5423 41.1024 99.5982 40.8275L100.656 40.7775C100.736 40.7794 100.815 40.7995 100.891 40.8376C100.972 40.8732 101.036 40.9257 101.083 40.9952C101.149 41.0917 101.179 41.2234 101.174 41.3904C101.173 41.5548 101.176 41.747 101.185 41.967C101.193 42.187 101.226 42.4268 101.284 42.6864C101.348 42.9473 101.479 43.2225 101.676 43.5121C101.977 43.956 102.315 44.2288 102.688 44.3304C103.066 44.4293 103.452 44.3451 103.845 44.0776C104.065 43.9282 104.207 43.7503 104.27 43.5439C104.335 43.3414 104.353 43.118 104.322 42.8736C104.295 42.6266 104.236 42.365 104.145 42.0888C104.053 41.8127 103.964 41.5287 103.879 41.2369C103.794 40.9451 103.726 40.6467 103.677 40.3417C103.628 40.0366 103.628 39.7344 103.679 39.4349C103.729 39.1355 103.846 38.842 104.028 38.5543C104.218 38.2679 104.503 37.9949 104.885 37.7353C105.19 37.5282 105.528 37.3861 105.899 37.3091C106.272 37.236 106.65 37.2392 107.031 37.3187C107.412 37.3982 107.786 37.562 108.152 37.8099C108.517 38.0578 108.85 38.4018 109.149 38.8419C109.484 39.336 109.717 39.844 109.845 40.3658C109.974 40.8876 109.999 41.3896 109.921 41.8717L108.922 41.9833Z" fill="black"/>
<path d="M118.659 67.5871L108.547 68.0343L108.464 66.1462L112.883 65.9507L112.673 61.2023L108.253 61.3978L108.17 59.5096L118.282 59.0624L118.366 60.9505L114.016 61.1429L114.226 65.8913L118.576 65.6989L118.659 67.5871Z" fill="black"/>
<path d="M105.915 91.9637C105.277 91.5839 104.749 91.1253 104.331 90.5879C103.914 90.057 103.621 89.4809 103.454 88.8595C103.286 88.2382 103.252 87.59 103.35 86.915C103.452 86.2424 103.7 85.5754 104.094 84.9139C104.485 84.2565 104.953 83.7228 105.496 83.313C106.043 82.9055 106.631 82.6256 107.259 82.4732C107.885 82.3249 108.532 82.3057 109.2 82.4157C109.872 82.5281 110.527 82.7742 111.164 83.154C111.801 83.5338 112.327 83.9912 112.742 84.5261C113.161 85.0635 113.454 85.6428 113.621 86.2641C113.787 86.8895 113.818 87.5385 113.716 88.2111C113.618 88.886 113.373 89.5523 112.982 90.2097C112.719 90.6507 112.419 91.0346 112.084 91.3613C111.752 91.6905 111.395 91.9613 111.013 92.1738C110.635 92.3886 110.235 92.5443 109.814 92.6408C109.394 92.7437 108.966 92.7875 108.53 92.772C108.093 92.7565 107.655 92.6802 107.216 92.5431C106.773 92.41 106.34 92.2169 105.915 91.9637ZM106.9 90.31C107.377 90.5942 107.842 90.7845 108.296 90.8807C108.753 90.9794 109.184 90.9893 109.59 90.9104C109.995 90.8315 110.37 90.6635 110.713 90.4063C111.054 90.1532 111.351 89.8141 111.605 89.3892C111.858 88.9642 112.016 88.5396 112.078 88.1152C112.139 87.6949 112.108 87.2856 111.987 86.8874C111.863 86.4932 111.649 86.1185 111.345 85.7633C111.045 85.4105 110.656 85.0919 110.179 84.8077C109.702 84.5234 109.234 84.332 108.777 84.2333C108.324 84.1371 107.894 84.1284 107.489 84.2072C107.085 84.2925 106.713 84.4617 106.372 84.7149C106.028 84.972 105.73 85.3131 105.477 85.738C105.224 86.163 105.067 86.5856 105.006 87.006C104.944 87.4304 104.972 87.8384 105.092 88.2302C105.216 88.6244 105.428 88.9979 105.728 89.3508C106.032 89.706 106.423 90.0257 106.9 90.31Z" fill="black"/>
<path d="M92.5919 104.071C92.2835 104.226 92.0335 104.399 91.8421 104.589C91.6527 104.784 91.5186 104.99 91.4399 105.207C91.3592 105.431 91.3327 105.664 91.3605 105.906C91.3904 106.152 91.4693 106.402 91.5973 106.656C91.719 106.898 91.8667 107.098 92.0404 107.256C92.2141 107.414 92.4105 107.524 92.6298 107.586C92.8491 107.648 93.0913 107.657 93.3562 107.612C93.6232 107.572 93.913 107.473 94.2257 107.316L95.4824 106.683L93.8487 103.438L92.5919 104.071ZM94.8804 108.616C94.276 108.921 93.7172 109.113 93.204 109.194C92.6909 109.274 92.2265 109.26 91.8108 109.151C91.3952 109.041 91.0295 108.844 90.7135 108.559C90.3934 108.276 90.1274 107.924 89.9155 107.503C89.6951 107.065 89.5655 106.626 89.5268 106.186C89.4901 105.75 89.5515 105.327 89.7111 104.918C89.8707 104.508 90.1346 104.119 90.503 103.751C90.8672 103.385 91.3432 103.054 91.9309 102.758L93.1876 102.125L91.5854 98.9427L93.2672 98.0959L97.819 107.137L94.8804 108.616Z" fill="black"/>
<path d="M64.5491 57.9789L64.4545 57.6H64.064H62.6C62.4143 57.6 62.2363 57.5262 62.105 57.3949L61.7515 57.7485L62.105 57.3949C61.9737 57.2637 61.9 57.0856 61.9 56.9C61.9 56.7143 61.9737 56.5363 62.105 56.405C62.2363 56.2737 62.4143 56.2 62.6 56.2H65C65 56.2 65 56.2 65 56.2C65.156 56.2 65.3076 56.2521 65.4306 56.3481L65.7382 55.9539L65.4306 56.3481C65.5536 56.4441 65.641 56.5783 65.6789 56.7296C65.6789 56.7297 65.679 56.7298 65.679 56.7299L66.0509 58.2209L66.1454 58.6H66.536H79.3997C79.519 58.6 79.6363 58.6306 79.7404 58.6887C79.8446 58.7468 79.9322 58.8306 79.9949 58.932C80.0576 59.0335 80.0933 59.1493 80.0986 59.2685C80.104 59.3876 80.0789 59.5061 80.0256 59.6127C80.0256 59.6128 80.0255 59.6128 80.0255 59.6128L76.4256 66.8127L76.4255 66.8129C76.3674 66.9291 76.2781 67.0269 76.1676 67.0953C76.0571 67.1636 75.9297 67.1999 75.7997 67.2H67.8968H67.6897L67.5432 67.3464L66.3432 68.5464L65.4897 69.4H66.6968H77C77.1856 69.4 77.3637 69.4737 77.495 69.605C77.6262 69.7363 77.7 69.9143 77.7 70.1C77.7 70.2856 77.6262 70.4636 77.495 70.5949C77.3637 70.7262 77.1856 70.8 77 70.8H66.6968C65.0039 70.8 64.1565 68.7538 65.3535 67.5567L66.4249 66.4865L66.6254 66.2863L66.5567 66.0114L64.9271 59.4954L64.9271 59.4954L64.9258 59.4904C64.9232 59.4807 64.9209 59.4709 64.9188 59.4611L64.9171 59.4532L64.9151 59.4453L64.5491 57.9789ZM77.7 74.2999C77.7 74.6447 77.563 74.9754 77.3192 75.2192C77.0754 75.463 76.7448 75.6 76.4 75.6C76.0552 75.6 75.7246 75.463 75.4808 75.2192C75.237 74.9754 75.1 74.6447 75.1 74.2999C75.1 73.9552 75.237 73.6245 75.4808 73.3807C75.7246 73.1369 76.0552 73 76.4 73C76.7448 73 77.0754 73.1369 77.3192 73.3807C77.563 73.6245 77.7 73.9552 77.7 74.2999ZM67.7192 75.2192C67.4754 75.463 67.1448 75.6 66.8 75.6C66.4552 75.6 66.1246 75.463 65.8808 75.2192C65.637 74.9754 65.5 74.6447 65.5 74.2999C65.5 73.9552 65.637 73.6245 65.8808 73.3807C66.1246 73.1369 66.4552 73 66.8 73C67.1448 73 67.4754 73.1369 67.7192 73.3807C67.963 73.6245 68.1 73.9552 68.1 74.2999C68.1 74.6447 67.963 74.9754 67.7192 75.2192Z" stroke="black"/>
<defs>
<filter id="filter0_d_3_385" x="0.0972233" y="0.548612" width="141.806" height="141.806" filterUnits="userSpaceOnUse" color-interpolation-filters="sRGB">
<feFlood flood-opacity="0" result="BackgroundImageFix"/>
<feColorMatrix in="SourceAlpha" type="matrix" values="0 0 0 0 0 0 0 0 0 0 0 0 0 0 0 0 0 0 127 0" result="hardAlpha"/>
<feOffset dy="5.45139"/>
<feGaussianBlur stdDeviation="5.45139"/>
<feComposite in2="hardAlpha" operator="out"/>
<feColorMatrix type="matrix" values="0 0 0 0 0 0 0 0 0 0 0 0 0 0 0 0 0 0 0.15 0"/>
<feBlend mode="normal" in2="BackgroundImageFix" result="effect1_dropShadow_3_385"/>
<feBlend mode="normal" in="SourceGraphic" in2="effect1_dropShadow_3_385" result="shape"/>
</filter>
</defs>
</svg>
